<svg width="28" height="28" viewBox="0 0 28 28" fill="none" xmlns="http://www.w3.org/2000/svg">
<path d="M25 14.7599V13.2299L26.92 11.5499C27.2739 11.238 27.5062 10.8109 27.5757 10.3443C27.6453 9.87769 27.5476 9.4015 27.3 8.99992L24.94 4.99992C24.7647 4.69618 24.5125 4.4439 24.2089 4.26838C23.9052 4.09286 23.5607 4.00028 23.21 3.99992C22.9927 3.99825 22.7765 4.03203 22.57 4.09992L20.14 4.91992C19.7205 4.64113 19.2828 4.39057 18.83 4.16992L18.32 1.64992C18.2286 1.18952 17.9781 0.775959 17.6125 0.481621C17.2468 0.187282 16.7893 0.0309246 16.32 0.0399182H11.64C11.1707 0.0309246 10.7132 0.187282 10.3476 0.481621C9.98192 0.775959 9.73146 1.18952 9.64001 1.64992L9.13001 4.16992C8.67394 4.39052 8.23298 4.64107 7.81001 4.91992L5.43001 4.05992C5.22131 4.00554 5.00518 3.98528 4.79001 3.99992C4.43928 4.00028 4.09482 4.09286 3.79117 4.26838C3.48752 4.4439 3.23537 4.69618 3.06001 4.99992L0.700009 8.99992C0.466595 9.40091 0.37986 9.87057 0.454658 10.3285C0.529455 10.7864 0.761132 11.204 1.11001 11.5099L3.00001 13.2399V14.7699L1.11001 16.4499C0.751277 16.7579 0.513264 17.183 0.438207 17.6499C0.36315 18.1167 0.455904 18.595 0.700009 18.9999L3.06001 22.9999C3.23537 23.3037 3.48752 23.5559 3.79117 23.7315C4.09482 23.907 4.43928 23.9996 4.79001 23.9999C5.00736 24.0016 5.22353 23.9678 5.43001 23.8999L7.86001 23.0799C8.27955 23.3587 8.71719 23.6093 9.17001 23.8299L9.68001 26.3499C9.77146 26.8103 10.0219 27.2239 10.3876 27.5182C10.7532 27.8125 11.2107 27.9689 11.68 27.9599H16.4C16.8693 27.9689 17.3268 27.8125 17.6925 27.5182C18.0581 27.2239 18.3086 26.8103 18.4 26.3499L18.91 23.8299C19.3661 23.6093 19.807 23.3588 20.23 23.0799L22.65 23.8999C22.8565 23.9678 23.0727 24.0016 23.29 23.9999C23.6407 23.9996 23.9852 23.907 24.2889 23.7315C24.5925 23.5559 24.8447 23.3037 25.02 22.9999L27.3 18.9999C27.5334 18.5989 27.6202 18.1293 27.5454 17.6714C27.4706 17.2134 27.2389 16.7958 26.89 16.4899L25 14.7599ZM23.21 21.9999L19.78 20.8399C18.9771 21.52 18.0594 22.0517 17.07 22.4099L16.36 25.9999H11.64L10.93 22.4499C9.94843 22.0815 9.03573 21.5508 8.23001 20.8799L4.79001 21.9999L2.43001 17.9999L5.15001 15.5999C4.96511 14.5648 4.96511 13.5051 5.15001 12.4699L2.43001 9.99992L4.79001 5.99992L8.22001 7.15992C9.02295 6.47981 9.94061 5.94817 10.93 5.58992L11.64 1.99992H16.36L17.07 5.54992C18.0516 5.91834 18.9643 6.44906 19.77 7.11992L23.21 5.99992L25.57 9.99992L22.85 12.3999C23.0349 13.4351 23.0349 14.4948 22.85 15.5299L25.57 17.9999L23.21 21.9999Z" fill="#6A6CE0"/>
</svg>
