<svg width="22" height="24" viewBox="0 0 22 24" fill="none" xmlns="http://www.w3.org/2000/svg">
<path d="M7.5 17.2499C6.68333 17.2499 5.99306 16.968 5.42917 16.4041C4.86528 15.8402 4.58333 15.1499 4.58333 14.3333C4.58333 13.5166 4.86528 12.8263 5.42917 12.2624C5.99306 11.6985 6.68333 11.4166 7.5 11.4166C8.31667 11.4166 9.00694 11.6985 9.57083 12.2624C10.1347 12.8263 10.4167 13.5166 10.4167 14.3333C10.4167 15.1499 10.1347 15.8402 9.57083 16.4041C9.00694 16.968 8.31667 17.2499 7.5 17.2499ZM2.83333 23.6666C2.19167 23.6666 1.64256 23.4383 1.186 22.9818C0.729444 22.5252 0.500778 21.9757 0.5 21.3333V4.99992C0.5 4.35825 0.728667 3.80914 1.186 3.35259C1.64333 2.89603 2.19244 2.66736 2.83333 2.66659H4V0.333252H6.33333V2.66659H15.6667V0.333252H18V2.66659H19.1667C19.8083 2.66659 20.3578 2.89525 20.8152 3.35259C21.2725 3.80992 21.5008 4.35903 21.5 4.99992V21.3333C21.5 21.9749 21.2717 22.5244 20.8152 22.9818C20.3586 23.4391 19.8091 23.6674 19.1667 23.6666H2.83333ZM2.83333 21.3333H19.1667V9.66659H2.83333V21.3333ZM2.83333 7.33325H19.1667V4.99992H2.83333V7.33325Z" fill="#FFFEFC"/>
</svg>
